<?xml version="1.0" standalone="no"?>
<!DOCTYPE svg PUBLIC "-//W3C//DTD SVG 20010904//EN"
 "http://www.w3.org/TR/2001/REC-SVG-20010904/DTD/svg10.dtd">
<svg version="1.0" xmlns="http://www.w3.org/2000/svg"
 width="582.000000pt" height="582.000000pt" viewBox="0 0 582.000000 582.000000"
 preserveAspectRatio="xMidYMid meet">
<metadata>
Created by potrace 1.14, written by Peter Selinger 2001-2017
</metadata>
<g transform="translate(0.000000,582.000000) scale(0.100000,-0.100000)"
fill="#000000" stroke="none">
<path d="M2802 5393 c-11 -26 -86 -192 -167 -368 -81 -176 -202 -441 -270
-590 -68 -148 -140 -306 -160 -350 -21 -44 -96 -208 -167 -365 -123 -269 -213
-465 -531 -1160 -74 -162 -149 -326 -167 -365 -18 -38 -91 -198 -162 -355
-265 -580 -399 -872 -516 -1127 l-120 -263 322 0 322 0 18 38 c41 84 533 1169
603 1327 41 94 119 271 174 395 54 124 264 601 466 1061 203 460 373 837 378
839 10 3 189 -395 988 -2205 88 -199 570 -1262 647 -1428 l13 -27 323 0 322 0
-95 208 c-52 114 -144 313 -203 442 -98 215 -454 992 -720 1570 -59 129 -157
343 -218 475 -60 132 -162 353 -225 490 -63 138 -126 275 -140 305 -13 30
-102 224 -197 430 -252 549 -386 842 -437 955 -25 55 -49 104 -53 108 -4 4
-16 -14 -28 -40z"/>
</g>
</svg>
