<?xml version="1.0" standalone="no"?>
<!DOCTYPE svg PUBLIC "-//W3C//DTD SVG 20010904//EN"
 "http://www.w3.org/TR/2001/REC-SVG-20010904/DTD/svg10.dtd">
<svg version="1.0" xmlns="http://www.w3.org/2000/svg"
 width="342.000000pt" height="342.000000pt" viewBox="0 0 342.000000 342.000000"
 preserveAspectRatio="xMidYMid meet">
<metadata>
Created by potrace 1.14, written by Peter Selinger 2001-2017
</metadata>
<g transform="translate(0.000000,342.000000) scale(0.100000,-0.100000)"
fill="#000000" stroke="none">
<path d="M1625 3068 c-10 -24 -41 -90 -69 -148 -28 -58 -51 -107 -51 -110 -3
-21 -31 -80 -37 -80 -4 0 -8 -5 -8 -12 0 -18 -33 -88 -42 -88 -4 0 -8 -7 -8
-15 0 -14 -10 -37 -96 -220 -23 -49 -49 -106 -57 -125 -9 -19 -27 -61 -41 -93
-14 -32 -26 -62 -26 -67 0 -6 -4 -10 -10 -10 -5 0 -10 -3 -9 -7 2 -14 -13 -53
-20 -53 -4 0 -8 -6 -8 -12 0 -7 -13 -40 -29 -73 -15 -33 -28 -62 -29 -65 -1
-7 -46 -102 -56 -120 -5 -8 -12 -22 -15 -30 -24 -63 -40 -96 -49 -102 -5 -4
-6 -8 -2 -8 5 0 1 -12 -7 -27 -8 -16 -23 -47 -32 -70 -10 -24 -22 -43 -28 -43
-5 0 -7 -3 -3 -6 3 -4 -4 -25 -15 -48 -12 -22 -21 -44 -20 -48 1 -5 -3 -8 -9
-8 -5 0 -8 -4 -5 -8 3 -5 -8 -35 -24 -68 -17 -32 -30 -65 -30 -71 0 -7 -4 -13
-8 -13 -9 0 -37 -70 -34 -82 1 -5 -2 -8 -7 -8 -5 0 -13 -10 -17 -22 -3 -12
-13 -37 -21 -57 -9 -20 -14 -37 -12 -37 2 -1 -4 -10 -13 -20 -9 -11 -18 -23
-19 -29 -1 -5 -21 -50 -44 -100 -50 -107 -59 -128 -57 -137 1 -5 -1 -8 -6 -8
-4 0 -13 -15 -21 -33 -7 -17 -31 -69 -52 -114 -22 -46 -39 -89 -39 -97 0 -8
-4 -17 -10 -21 -5 -3 -19 -33 -31 -65 -12 -33 -26 -60 -30 -60 -5 0 -8 -3 -7
-7 1 -5 -7 -27 -19 -50 -15 -31 -18 -45 -9 -51 13 -10 324 -8 348 2 10 5 20
17 24 28 3 11 14 39 24 61 10 23 18 44 18 47 -1 3 13 31 30 62 18 31 32 63 32
71 0 8 7 20 15 27 9 7 13 15 11 18 -3 3 1 17 9 31 24 46 65 139 65 150 0 6 4
11 9 11 5 0 12 13 16 30 4 16 11 30 16 30 6 0 8 4 5 8 -5 8 5 30 60 144 18 36
30 69 27 72 -4 3 -1 6 5 6 7 0 11 3 10 8 -1 7 8 30 64 152 16 36 29 66 28 68
0 1 13 29 30 62 17 33 30 62 31 65 1 15 33 81 43 87 6 4 8 8 3 8 -4 0 -1 13 8
30 8 16 16 32 16 35 0 2 10 26 21 52 12 27 23 54 24 62 2 8 7 17 13 20 5 4 12
18 14 32 3 15 10 35 15 45 23 42 86 179 84 181 -2 3 24 62 82 186 20 42 36 80
36 85 1 22 72 146 85 148 11 2 29 -27 60 -92 25 -52 45 -100 45 -107 0 -7 5
-18 11 -24 6 -6 11 -17 13 -24 1 -8 12 -33 24 -56 12 -23 22 -49 22 -58 0 -8
5 -15 11 -15 5 0 7 -4 4 -10 -3 -5 -1 -10 4 -10 6 0 10 -3 9 -7 -1 -5 8 -30
21 -58 13 -27 24 -54 25 -60 4 -13 28 -68 68 -153 17 -37 32 -69 33 -72 1 -3
6 -16 12 -30 6 -14 10 -28 9 -31 0 -4 8 -17 19 -29 11 -12 18 -24 16 -26 -5
-7 21 -67 37 -87 8 -9 12 -20 9 -24 -4 -3 -1 -13 7 -22 8 -9 15 -19 16 -23 1
-11 29 -76 56 -134 13 -28 24 -56 24 -62 0 -7 5 -12 10 -12 6 0 10 -8 10 -18
0 -10 9 -38 21 -63 103 -218 108 -232 103 -241 -3 -4 -1 -8 4 -8 6 0 55 -94
67 -130 13 -38 40 -90 47 -90 5 0 7 -4 4 -8 -2 -4 2 -23 11 -42 35 -79 48
-105 56 -108 4 -2 7 -8 7 -14 0 -6 12 -36 27 -67 15 -31 27 -60 27 -66 1 -5 6
-19 13 -30 11 -18 23 -20 183 -20 132 0 174 3 183 13 8 10 8 15 0 20 -6 4 -14
19 -18 34 -4 15 -13 29 -22 32 -8 3 -12 10 -9 15 3 4 -7 33 -21 62 -15 30 -27
56 -28 59 -1 3 -16 35 -33 73 -18 37 -31 68 -30 70 2 1 -7 18 -19 37 -12 19
-22 37 -22 40 0 8 -41 103 -56 131 -8 14 -12 28 -9 31 2 3 -2 11 -11 18 -8 7
-15 18 -15 24 0 6 -18 46 -40 88 -22 43 -37 78 -35 78 3 0 -6 21 -19 47 -13
27 -33 68 -44 93 -12 25 -37 80 -57 123 -19 43 -37 84 -38 90 -1 7 -5 14 -9
17 -3 3 -34 68 -68 145 -34 77 -68 150 -76 163 -8 12 -12 27 -9 32 4 6 -1 13
-9 16 -9 3 -16 15 -16 25 0 10 -5 19 -11 19 -5 0 -7 5 -4 10 3 6 1 10 -4 10
-6 0 -10 3 -9 8 2 10 -38 101 -105 242 -23 47 -42 91 -43 99 -2 8 -6 17 -11
20 -4 3 -9 13 -11 21 -2 8 -24 58 -49 110 -26 52 -48 101 -49 109 -1 7 -7 18
-13 24 -6 6 -11 19 -11 28 0 9 -7 22 -15 29 -8 6 -14 15 -13 18 2 9 -10 36
-71 167 -29 61 -58 124 -66 140 -7 17 -29 64 -48 105 -19 41 -43 94 -53 117
-11 24 -24 43 -30 43 -5 0 -18 -19 -29 -42z"/>
<path d="M358 2299 c-6 -4 -16 -5 -22 -2 -5 3 -6 1 -2 -5 4 -7 2 -12 -3 -12
-6 0 -11 -7 -11 -15 0 -8 -5 -15 -12 -15 -6 0 -8 -3 -5 -7 4 -3 2 -12 -4 -20
-6 -7 -8 -13 -5 -13 4 0 0 -7 -8 -16 -9 -8 -14 -19 -11 -24 3 -4 -2 -11 -11
-14 -8 -3 -13 -10 -10 -15 3 -5 -1 -14 -10 -22 -16 -13 -59 -99 -56 -111 1 -5
-2 -8 -6 -8 -5 0 -17 -16 -28 -35 -10 -19 -22 -35 -26 -35 -5 0 -8 -7 -8 -15
0 -8 -5 -15 -12 -15 -6 0 -8 -3 -5 -6 3 -4 0 -16 -8 -28 -12 -16 -15 -64 -15
-248 0 -154 3 -228 11 -228 5 0 7 5 4 10 -3 6 -1 10 4 10 6 0 11 6 11 14 0 7
9 25 21 40 11 14 17 26 12 26 -4 0 1 7 11 15 11 8 16 15 12 15 -5 0 -3 7 4 15
15 18 78 134 86 158 4 9 10 17 15 17 5 0 9 6 9 14 0 7 7 19 15 26 8 7 13 16
10 20 -3 5 1 14 8 22 15 15 62 87 67 103 2 6 10 16 17 23 7 7 13 20 13 28 0 8
5 14 11 14 5 0 8 4 5 9 -4 5 -2 11 3 13 10 4 41 54 72 118 12 25 29 52 38 60
9 8 17 22 19 30 2 8 11 23 19 33 9 9 13 17 9 17 -4 0 2 12 13 26 12 15 21 30
21 35 0 10 -245 8 -262 -2z"/>
</g>
</svg>
